<svg width="25" height="25" viewBox="0 0 25 25" fill="none" xmlns="http://www.w3.org/2000/svg">
<path d="M19.8249 9.9682C19.8249 9.9682 19.2819 16.7032 18.9669 19.5402C18.8169 20.8952 17.9799 21.6892 16.6089 21.7142C13.9999 21.7612 11.3879 21.7642 8.77991 21.7092C7.46091 21.6822 6.63791 20.8782 6.49091 19.5472C6.17391 16.6852 5.63391 9.9682 5.63391 9.9682" stroke="#1E1E1E" stroke-width="1.5" stroke-linecap="round" stroke-linejoin="round"/>
<path d="M21.2082 6.73972H4.25024" stroke="#1E1E1E" stroke-width="1.5" stroke-linecap="round" stroke-linejoin="round"/>
<path d="M17.9407 6.7397C17.1557 6.7397 16.4797 6.1847 16.3257 5.4157L16.0827 4.1997C15.9327 3.6387 15.4247 3.2507 14.8457 3.2507H10.6127C10.0337 3.2507 9.5257 3.6387 9.3757 4.1997L9.1327 5.4157C8.9787 6.1847 8.3027 6.7397 7.5177 6.7397" stroke="#1E1E1E" stroke-width="1.5" stroke-linecap="round" stroke-linejoin="round"/>
</svg>
